#!OML:ASF Y:\EmotionMaleHayes\Project 1\Capture day 1\Session 1\Male1.ASF
:FULLY-SPECIFIED
:DEGREES
98
root -28.209 17.1144 0.98365 27.7903 86.2416 25.9532
lowerback 3.60653 1.68832 -4.2652
upperback 1.12008 2.11076 -0.294058
thorax -1.01169 1.06481 1.99156
lowerneck -22.1656 3.09728 4.44001
upperneck 23.1623 3.65994 -2.56012
head 11.3374 1.77477 -1.07776
rclavicle 2.48481e-015 -8.15017e-015
rhumerus -35.0258 5.67923 -89.3406
rradius 32.4659
rwrist 1.32882
rhand -13.0521 -28.6733
rfingers 7.12502
rthumb 13.043 -58.2455
lclavicle 2.48481e-015 -8.15017e-015
lhumerus -31.9502 -12.0068 92.386
lradius 25.7298
lwrist -11.0414
lhand -20.6622 -27.4962
lfingers 7.12502
lthumb 5.70052 2.40717
rfemur 6.63918 -6.12702 16.423
rtibia 2.85634
rfoot -15.7089 -3.69667
rtoes 1.20088
lfemur 8.78972 3.65194 -18.9774
ltibia -1.15548
lfoot -11.2735 10.101
ltoes -5.42606
99
root -28.2103 17.114 0.983487 27.2454 86.2193 25.4117
lowerback 3.63031 1.69262 -4.26881
upperback 1.12044 2.11527 -0.2716
thorax -1.0259 1.06728 2.0157
lowerneck -22.1751 3.13341 4.39473
upperneck 23.1321 3.70669 -2.49663
head 11.3273 1.79946 -1.03919
rclavicle 8.23093e-015 -8.64713e-015
rhumerus -35.0333 5.74068 -89.3362
rradius 32.5049
rwrist 1.38367
rhand -12.9704 -28.9268
rfingers 7.12502
rthumb 13.1218 -58.494
lclavicle 8.23093e-015 -8.64713e-015
lhumerus -31.9525 -11.8926 92.3643
lradius 25.7898
lwrist -11.0983
lhand -20.5472 -27.4138
lfingers 7.12502
lthumb 5.81153 2.48655
rfemur 6.62139 -6.06013 16.4731
rtibia 2.8848
rfoot -15.7591 -3.72432
rtoes 0.642711
lfemur 8.7949 3.62137 -18.9559
ltibia -1.17791
lfoot -11.2739 10.1795
ltoes -5.28675
100
root -28.2111 17.1138 0.98362 25.6844 86.2553 23.8376
lowerback 3.62087 1.68743 -4.17071
upperback 1.11817 2.11218 -0.251828
thorax -1.02008 1.06543 1.98159
lowerneck -22.2489 3.16764 4.53204
upperneck 23.2162 3.73259 -2.59037
head 11.3793 1.81109 -1.09137
rclavicle -4.88886e-015 -5.36719e-015
rhumerus -35.0131 5.62769 -89.3156
rradius 32.4634
rwrist 1.48554
rhand -12.8645 -28.9015
rfingers 7.12502
rthumb 13.2238 -58.4621
lclavicle -4.88886e-015 -5.36719e-015
lhumerus -31.9551 -11.9597 92.3514
lradius 25.8008
lwrist -11.0334
lhand -20.5284 -27.2577
lfingers 7.12502
lthumb 5.82964 2.64208
rfemur 6.60011 -6.03946 16.635
rtibia 2.87948
rfoot -15.8004 -3.77468
rtoes 0.147044
lfemur 8.80032 3.62851 -18.8136
ltibia -1.21528
lfoot -11.3144 10.1806
ltoes -4.57035
101
root -28.2115 17.1123 0.983183 24.9364 86.2809 23.0465
lowerback 3.57277 1.69875 -4.07743
upperback 1.09936 2.13193 -0.267531
thorax -1.00995 1.07515 1.91349
lowerneck -22.2014 3.16024 4.5682
upperneck 23.1992 3.71086 -2.5874
head 11.3637 1.80553 -1.10028
rclavicle 1.08835e-014 -1.09332e-014
rhumerus -34.999 5.49025 -89.2985
rradius 32.4031
rwrist 1.52407
rhand -12.8977 -28.8076
rfingers 7.12502
rthumb 13.1918 -58.3702
lclavicle 1.08835e-014 -1.09332e-014
lhumerus -31.9622 -12.169 92.3844
lradius 25.7352
lwrist -10.9075
lhand -20.5308 -27.2023
lfingers 7.12502
lthumb 5.82736 2.69756
rfemur 6.56132 -5.96403 16.7428
rtibia 2.83483
rfoot -15.8113 -3.89828
rtoes 0.000981929
lfemur 8.75715 3.62203 -18.7411
ltibia -1.20762
lfoot -11.4304 10.0602
ltoes -3.39462
102
root -28.2122 17.1114 0.98221 25.1094 86.3178 23.1854
lowerback 3.55943 1.69414 -4.04621
upperback 1.07029 2.12638 -0.271624
thorax -1.0308 1.07297 1.89197
lowerneck -22.1205 3.13101 4.49269
upperneck 23.1577 3.68139 -2.523
head 11.3283 1.79468 -1.0697
rclavicle -7.71533e-015 2.5842e-015
rhumerus -35.0381 5.50887 -89.3018
rradius 32.414
rwrist 1.47261
rhand -12.9548 -28.8749
rfingers 7.12502
rthumb 13.1368 -58.4411
lclavicle -7.71533e-015 2.5842e-015
lhumerus -31.9917 -12.2231 92.4179
lradius 25.6907
lwrist -10.8194
lhand -20.4049 -27.3351
lfingers 7.12502
lthumb 5.94892 2.56142
rfemur 6.53763 -5.83796 16.7848
rtibia 2.80639
rfoot -15.8182 -4.03814
rtoes 0.372601
lfemur 8.66783 3.68431 -18.7227
ltibia -1.10876
lfoot -11.4661 9.95087
ltoes -3.90388
103
root -28.213 17.1135 0.980316 26.484 86.3291 24.5722
lowerback 3.58706 1.67556 -4.11819
upperback 1.06831 2.09776 -0.286678
thorax -1.04841 1.05921 1.91727
lowerneck -22.0324 3.10076 4.38193
upperneck 23.1116 3.64909 -2.4093
head 11.288 1.78578 -1.01575
rclavicle -9.81499e-016 -1.19271e-015
rhumerus -35.0692 5.54869 -89.3037
rradius 32.4378
rwrist 1.45808
rhand -12.9656 -28.8281
rfingers 7.12502
rthumb 13.1263 -58.395
lclavicle -9.81499e-016 -1.19271e-015
lhumerus -32.0106 -12.1286 92.402
lradius 25.6984
lwrist -10.8639
lhand -20.2506 -27.374
lfingers 7.12502
lthumb 6.09786 2.51825
rfemur 6.55423 -6.011 16.6199
rtibia 2.78831
rfoot -15.7459 -3.87432
rtoes 0.57295
lfemur 8.62211 3.75855 -18.8163
ltibia -1.02552
lfoot -11.4162 9.92651
ltoes -5.18748
104
root -28.213 17.1144 0.979279 27.5319 86.2808 25.6323
lowerback 3.53389 1.66975 -4.20139
upperback 1.12301 2.09181 -0.308754
thorax -0.964057 1.0543 1.94401
lowerneck -22.1589 3.14085 4.42578
upperneck 23.1519 3.68712 -2.42096
head 11.33 1.80374 -1.01981
rclavicle -3.91357e-015 -6.55989e-015
rhumerus -34.9801 5.58481 -89.3052
rradius 32.4125
rwrist 1.51614
rhand -12.9944 -28.7593
rfingers 7.12502
rthumb 13.0986 -58.328
lclavicle -3.91357e-015 -6.55989e-015
lhumerus -31.9507 -12.0416 92.3585
lradius 25.7202
lwrist -10.9063
lhand -20.1022 -27.2683
lfingers 7.12502
lthumb 6.24116 2.61978
rfemur 6.57676 -6.11258 16.4691
rtibia 2.73995
rfoot -15.6389 -3.70471
rtoes 0.413457
lfemur 8.67335 3.62199 -18.9645
ltibia -1.10987
lfoot -11.395 10.0351
ltoes -4.88083
105
root -28.2129 17.1137 0.979273 27.3245 86.22 25.4103
lowerback 3.55586 1.68748 -4.21396
upperback 1.09717 2.11286 -0.317558
thorax -1.00441 1.06588 1.93981
lowerneck -22.079 3.12207 4.32007
upperneck 23.0858 3.67067 -2.31799
head 11.2847 1.80067 -0.968071
rclavicle -1.18898e-014 5.36719e-015
rhumerus -35.0094 5.64428 -89.3373
rradius 32.443
rwrist 1.50978
rhand -13.2279 -28.5955
rfingers 7.12502
rthumb 12.8735 -58.1784
lclavicle -1.18898e-014 5.36719e-015
lhumerus -31.9855 -11.987 92.3402
lradius 25.7175
lwrist -10.9313
lhand -20.2035 -27.3466
lfingers 7.12502
lthumb 6.14332 2.54436
rfemur 6.55935 -6.00706 16.4772
rtibia 2.77141
rfoot -15.5956 -3.70487
rtoes 0.355434
lfemur 8.72027 3.55024 -19.0064
ltibia -1.20646
lfoot -11.4271 10.0702
ltoes -3.93518
106
root -28.214 17.1132 0.979224 26.6376 86.2274 24.7207
lowerback 3.56767 1.68986 -4.17879
upperback 1.08498 2.11624 -0.298861
thorax -1.02325 1.06793 1.9386
lowerneck -22.0976 3.13534 4.34254
upperneck 23.0933 3.68673 -2.33964
head 11.2927 1.80692 -0.97692
rclavicle 1.99157e-014 -4.96962e-015
rhumerus -34.9873 5.61806 -89.3223
rradius 32.4189
rwrist 1.50245
rhand -13.3757 -28.2719
rfingers 7.12502
rthumb 12.731 -57.8638
lclavicle 1.99157e-014 -4.96962e-015
lhumerus -32.0057 -11.8693 92.3213
lradius 25.7025
lwrist -11.1477
lhand -20.5792 -27.5961
lfingers 7.12502
lthumb 5.78067 2.30508
rfemur 6.57614 -5.98199 16.5428
rtibia 2.71682
rfoot -15.5207 -3.79199
rtoes 0.0388265
lfemur 8.70567 3.65791 -18.9219
ltibia -1.1757
lfoot -11.4586 9.93297
ltoes -3.37
